<svg width="46" height="49" viewBox="0 0 46 49" fill="none" xmlns="http://www.w3.org/2000/svg">
<g clip-path="url(#clip0_687_2983)">
<path d="M44.83 6.31125H37.6469C36.2758 6.31125 34.9097 7.41231 34.5369 8.81797L32.5965 16.1334C32.3745 16.0676 32.141 16.0296 31.898 16.0296H15.5627C14.7739 12.2835 11.6288 9.47535 7.87766 9.47535C3.53385 9.47535 0 13.2398 0 17.8666C0 22.1005 2.95993 25.6104 6.79096 26.1763C6.78925 26.2309 6.78956 26.2861 6.79471 26.3421L7.20187 30.7386C7.34617 32.2961 8.61007 33.5161 10.0794 33.5161H28.0914C29.4684 33.5161 30.8286 32.4069 31.188 30.9911L33.4405 22.118L36.7884 9.49579C36.8793 9.15331 37.3124 8.80401 37.6467 8.80401H44.8298C45.476 8.80401 45.9998 8.24617 45.9998 7.55771C45.9998 6.86926 45.4761 6.31125 44.83 6.31125ZM2.33999 17.8666C2.33999 14.6141 4.82412 11.968 7.87766 11.968C10.9312 11.968 13.4152 14.6141 13.4152 17.8666C13.4152 21.1191 10.931 23.7653 7.87766 23.7653C4.82428 23.7653 2.33999 21.1193 2.33999 17.8666ZM28.9293 30.3404C28.8433 30.6787 28.4204 31.0235 28.0914 31.0235H10.0794C9.82265 31.0235 9.5559 30.7661 9.53063 30.4938L9.12846 26.1508C12.6812 25.5443 15.446 22.3986 15.7288 18.5222H31.8978C31.909 18.5222 31.9192 18.5227 31.9279 18.5233C31.9262 18.5326 31.924 18.5431 31.9211 18.5546L28.9293 30.3404Z" fill="black"/>
<path d="M13.4946 34.9356C11.4879 34.9356 9.85541 36.6746 9.85541 38.8121C9.85541 40.9496 11.4879 42.6886 13.4946 42.6886C15.5012 42.6886 17.1339 40.9496 17.1339 38.8121C17.1339 36.6746 15.5012 34.9356 13.4946 34.9356ZM13.4946 40.196C12.7782 40.196 12.1954 39.5751 12.1954 38.8121C12.1954 38.049 12.7782 37.4282 13.4946 37.4282C14.2109 37.4282 14.7939 38.049 14.7939 38.8121C14.7939 39.5751 14.2109 40.196 13.4946 40.196Z" fill="black"/>
<path d="M25.0335 34.9356C23.0269 34.9356 21.3944 36.6746 21.3944 38.8121C21.3944 40.9496 23.0269 42.6886 25.0335 42.6886C27.0402 42.6886 28.6727 40.9496 28.6727 38.8121C28.6727 36.6746 27.0402 34.9356 25.0335 34.9356ZM25.0335 40.196C24.3172 40.196 23.7344 39.5751 23.7344 38.8121C23.7344 38.049 24.3172 37.4282 25.0335 37.4282C25.7499 37.4282 26.3327 38.049 26.3327 38.8121C26.3327 39.5751 25.7499 40.196 25.0335 40.196Z" fill="black"/>
<path d="M9.04734 20.9534V19.1131H10.7755C11.4217 19.1131 11.9455 18.5552 11.9455 17.8668C11.9455 17.1783 11.4217 16.6205 10.7755 16.6205H9.04734V14.7794C9.04734 14.091 8.52349 13.5331 7.87735 13.5331C7.2312 13.5331 6.70735 14.091 6.70735 14.7794V16.6203H4.97966C4.33351 16.6203 3.80966 17.1782 3.80966 17.8666C3.80966 18.5551 4.33351 19.1129 4.97966 19.1129H6.70735V20.9533C6.70735 21.6417 7.2312 22.1996 7.87735 22.1996C8.52349 22.1996 9.04734 21.6417 9.04734 20.9534Z" fill="black"/>
</g>
<defs>
<clipPath id="clip0_687_2983">
<rect width="46" height="49" fill="white"/>
</clipPath>
</defs>
</svg>
